<?xml version="1.0" encoding="utf-8"?><svg viewBox="0 0 138 62" xmlns="http://www.w3.org/2000/svg" xmlns:xlink="http://www.w3.org/1999/xlink"><style>:root>svg{display:none}:root>svg:target{display:block}</style><svg viewBox="0 0 138 62" id="logo" xmlns="http://www.w3.org/2000/svg"><path d="M40.404 26.156l.162 1.584c1.944-.414 6.534-.864 8.46-1.062-1.638.972-3.348 3.276-3.348 6.066 0 4.032 3.78 5.796 7.11 5.922l.522-1.476c-2.916-.108-6.21-1.242-6.21-4.752 0-2.124 1.566-4.878 4.14-5.706.918-.252 2.484-.288 3.528-.27l-.018-1.44c-1.206.036-2.88.144-4.86.306a492.31 492.31 0 00-7.866.738c-.36.036-.936.072-1.62.09zm11.754 2.502l-.9.396c.54.756 1.044 1.674 1.458 2.538l.936-.414c-.396-.81-1.08-1.926-1.494-2.52zm1.962-.756l-.882.414a17.722 17.722 0 011.53 2.52l.918-.45a21.122 21.122 0 00-1.566-2.484zm14.796-3.258l-1.602-.648c-.216.54-.45.972-.648 1.404-.99 1.728-4.932 9.108-6.246 12.744l1.548.54c.252-.882 1.008-3.024 1.566-4.086.684-1.422 2.052-2.898 3.492-2.898.81 0 1.278.486 1.314 1.26.054.99.036 2.376.09 3.438.054 1.062.684 2.268 2.61 2.268 2.61 0 4.122-2.016 5.076-4.914l-1.206-.972c-.45 1.926-1.638 4.41-3.654 4.41-.774 0-1.386-.396-1.44-1.296-.072-.882-.036-2.25-.072-3.312-.054-1.422-.918-2.196-2.124-2.196-.864 0-1.8.342-2.664 1.116.918-1.746 2.574-4.734 3.384-5.976.198-.342.414-.666.576-.882zm13.446 1.026l.09 1.314c2.574.252 5.094.252 6.912.072 1.44-.126 2.97-.432 4.14-.774l-.198-1.314a18.713 18.713 0 01-4.248.864c-1.836.18-4.194.144-6.696-.162zm-.36 3.69l.09 1.35c3.096.234 6.426.18 8.64-.108 1.512-.18 2.88-.45 3.87-.72l-.234-1.332c-.954.288-2.412.648-4.122.828-2.106.252-5.166.306-8.244-.018zm6.156-3.924c.252.9.522 1.854.972 3.096.522 1.458 1.278 3.186 2.268 4.734a93.252 93.252 0 00-2.7-.288l-.108 1.098c1.242.126 2.916.306 3.924.558l.756-1.098a3.981 3.981 0 01-.684-.774c-.936-1.386-1.728-3.114-2.214-4.518-.45-1.278-1.008-3.096-1.188-4.608l-1.53.198c.198.522.36 1.08.504 1.602zm-3.528 7.812l-1.404-.306c-.414.792-.72 1.548-.72 2.574.036 2.322 2.016 3.366 5.526 3.366 1.548 0 2.952-.108 4.212-.324l.072-1.422c-1.314.252-2.628.378-4.302.378-2.826 0-4.14-.756-4.14-2.232 0-.81.324-1.422.756-2.034zm15.984-7.092l.162 1.584c1.944-.414 6.534-.864 8.46-1.062-1.638.972-3.348 3.276-3.348 6.066 0 4.032 3.78 5.796 7.11 5.922l.522-1.476c-2.916-.108-6.21-1.242-6.21-4.752 0-2.124 1.566-4.878 4.14-5.706.918-.252 2.484-.288 3.528-.27l-.018-1.44c-1.206.036-2.88.144-4.86.306a492.31 492.31 0 00-7.866.738c-.36.036-.936.072-1.62.09zm11.754 2.502l-.9.396c.54.756 1.044 1.674 1.458 2.538l.936-.414c-.396-.81-1.08-1.926-1.494-2.52zm1.962-.756l-.882.414a17.722 17.722 0 011.53 2.52l.918-.45a21.122 21.122 0 00-1.566-2.484zm16.236-4.158h-1.656c.036.162.09.666.126 1.152.054.99.072 4.572.072 5.364l1.368.702c-.018-1.44-.054-4.914 0-6.084 0-.216.054-.918.09-1.134zm-9.576 2.52l.036 1.386c2.718-.198 6.57-.324 9.666-.324 2.646 0 4.266.036 5.274.09l.018-1.332c-.846-.018-3.078-.018-5.274-.018-2.772 0-7.272.162-9.72.198zm9.45 5.22l-.99-.504c.288 1.926-.432 2.862-1.548 2.862-.99 0-1.836-.648-1.836-1.782 0-1.17.882-1.908 1.836-1.908.972 0 1.764.684 1.764 2.304 0 2.97-1.908 4.572-5.184 5.346l1.206 1.17c4.176-1.242 5.364-3.942 5.364-6.39 0-2.07-1.062-3.618-3.15-3.618-1.71 0-3.186 1.332-3.186 3.114 0 1.962 1.458 3.024 2.97 3.024 1.638 0 2.754-1.206 2.754-3.618z"/><path d="M30.444.102c16.8-.056 30.489 13.541 30.545 30.342.057 16.8-13.541 30.489-30.341 30.545-16.8.057-30.49-13.541-30.546-30.341C.046 13.848 13.643.158 30.443.102zm.007 2.255a28.05 28.05 0 00-12.037 2.767c2.642.523 4.89 1.675 5.427 1.554.823-.185 4.81.493 6.276 1.036 1.465.545 1.33 1.243 1.695 1.333.367.092.563.415 1.132 1.054.569.638-.278 1.41-.278 1.41s-2.17.496-2.54-1.119c-.22-.96.095.82.005 1.55-.089.732-1.45.92-2.185.008-.33-.41-.288-1.418-.499-1.76-.26-.419-.826-.096-1.128-.137-.182-.022.234.284.002.422-.467.278-1.43-.191-1.195.92.094.448 1.51.533 1.695 1.193.186.66.497 1.055.497 1.055l3.03.06.982-1.412s.963.413.71 1.266c-.175.588.285 1.268.285 1.268s1.551.242 1.553.699c0 .251.633.28.988.42.291.114.49.591.777.631.172.022 1.243.174 1.48.207.644.076.354.224.355.492.001.365-1.197.427-1.197.427s-.766.3-.49.847c.276.548-.194.776.355.774.238-.001.79-.078 1.338-.075.71-.003 1.393-.227 1.41.066.072 1.128.08 2.748.08 2.748s-.96.478-1.479.357c-.718-.164-1.766.4-2.258-.909-.038-.1-.064-.32-.142-.422-.341-.444-.711-1.34-1.274-1.616-.346-.173-.825-.06-.987-.068-.365-.02-.988-.49-.988-.49s-1.618.225-2.038 1.84c-.125.476-.002 1.257-.277 1.41-.167.093-.918-.702-.918-.702l-.846.074.49-1.13 1.544-1.767-.282-.135s-1.176.083-1.268.356c-.09.275-1.504.975-1.262 1.766.4 1.31-.559 1.623-.559 1.623s-.832.2-1.2-.49c-.319-.6-.355-1.125-.355-1.125l-1.058-.213s.093-2.195-1.065-2.251c-1.158-.055-1.268.004-1.268.004s-2.541.849-2.814 1.49c-.271.64-.395 1.248.427 1.337.823.09 2.044-.073 2.044-.073s3.232-.501 2.96.413c-.27.915-.557 1.834-.557 1.834s-.703-.071-1.338.07c-.68.158-1.55.076-1.55.076l-.136 1.551.423.14c.461.127 1.82.21 2.186.345.366.134 4.346-.575 4.438-.438.092.135 1.385.6 2.116.416.73-.186.91-1.906.91-1.906s.128-.82.63-.777l3.949.339s1.129.498 1.13.771c0 0 .318-.23.775-.002.458.227.692.747.877 1.112.184.366.046.629.94 1.129.367.638.327.358.606 1.5.278 1.142 1.064 3.551 1.5 4-.043.823.32 2.05-.5 2.5-.821.452-1.418 2.587-1.828 3.002-.41.412-2.613.755-2.888.573-.274-.181-1.26-.56-1.764-.558-.503.002-1.583.085-1.901.36-.319.275-.709.866-.981 1.553-.271.686-.541 1.845-.768 2.258-.228.412-1.092 1.199-.769 1.975.323.777.872 1.55.784 2.464-.088.914-.632 2.128-.837 2.54-.207.411-1.52 1.707-1.473 2.12.046.41-.343.31-.844.495-.502.185-2.642-.4-2.963-.765-.32-.364-.82-1.517-1.416-2.11-.596-.592-1.831-1.562-2.474-2.246-.641-.684-1.298-1.312-1.346-2.18-.047-.87.448-2.783-.01-3.101-.46-.319-1.095-.811-1.556-1.404-.459-.593-1.43-.542-2.122-2.46-.693-1.917-.92-2.512-.784-2.605.135-.092 1.226.357 1.411.63.184.274 1.253.339 1.482.559.23.22 1.269-.005 1.269-.005s-.446-1.73-.22-2.324c.227-.595 1.387-2.917 1.75-3.741.298-.676.348-1.457.204-1.974-.058.084-.095.13-.14.212-.16.292-1.035 1.333-1.401 2.4a29.193 29.193 0 01-1.678 3.953s-1.191.049-3.176-1.47c-1.352-1.031-2.793-1.08-3.036-1.61-.46-1.005 1.403-1.908 1.403-1.908l1.691-.005 1.261-2.19-.352-.14s-1.4 1.627-2.039 1.629c-.639.002-2.341-.14-2.887.503-.547.641-2.257 1.729-2.528 2.827-.271 1.097-.127 2.63-.623 3.173-.7.765-1.337.71-1.337.71l-.852-1.97-1.981-2.25-.42-.21c.091 15.55 12.722 28.076 28.28 28.024 7.382-.025 14.065-2.904 19.072-7.556l-.85-1.243-1-3.944 2.391-1.487L53 43.578l1.818-4.446s1.705-1.388 3.12-2.032c.51-2.137.805-4.354.797-6.649-.005-1.663-.185-3.283-.465-4.865-1.738-1.322-4.07-2.378-4.07-2.378s-1.285-.143.904-3.809c.316-.53.5-1.016.62-1.482a28.168 28.168 0 00-3.338-5.195c.114.668.562 3.446-.251 3.939-.91.551-1.793-1.137-1.979-1.685-.184-.548-2.096-2.631-2.831-3.726-.524-.78-.345-2.299.187-3.189-4.746-3.586-10.645-5.725-17.06-5.704zm5.584 5.055c.438.042 1.34.274 1.343.983l.004 1.339s.273.48.425.632c.154.153.023.854-.067 1.128-.09.276-.137 1.128-.137 1.128s-.44.233-.562.354c-.122.12-1.163.388-1.62.147-.459-.242-.726-.883-1.06-.913-.336-.03-.132-.029-.072-.282.06-.243-.286-1.126-.286-1.126l.914-.778s.55-1.187.488-1.552c-.062-.367.448-1.014.419-1.059-.007-.022.066-.023.211 0zm2.405 2.67c.125.054.365.353.495.421.174.088.121.391.214.634.092.244.356 1.126.356 1.126l-.563.214s-.896-.167-.988-.35c-.074-.146.188-.946.277-1.269.023-.077 0-.14 0-.14l.14-.565c.022-.045.028-.09.07-.07zM14.86 17.913c-.208.001-.613.146-.704.214-.122.093-.119 1.163.006 1.832.124.671-.378 1.069-.56 1.13-.184.061-.309 1.529-.276 1.833.031.305.893.53 1.13.56.236.03 1.227.018 1.196-.427-.033-.443.163-1.888.344-2.468.18-.58.129-1.398-.146-1.55-.275-.15-.85-1.054-.85-1.054-.023-.05-.071-.068-.14-.07zm1.352 24.943c.11 0 .268.022.423.069 0 0 .069 1.35.71 1.76.64.409 1.061 1.205 1.063 1.617.001.411.14.785.004 1.198-.136.411-.447.752-.843.707-.398-.044-.828-.9-.92-1.265-.093-.365-.437-1.153-.71-1.407-.276-.253-.332-.971-.287-1.338.039-.32-.207-1.356.56-1.341z"/></svg><svg viewBox="0 0 34 32" id="phone" xmlns="http://www.w3.org/2000/svg"><path d="M26.303 19.823c-.658-.682-1.451-1.047-2.292-1.047-.834 0-1.635.358-2.32 1.04l-2.142 2.128c-.177-.095-.353-.183-.523-.27-.244-.122-.474-.237-.67-.359-2.008-1.27-3.832-2.924-5.582-5.065-.847-1.067-1.417-1.965-1.83-2.877.555-.507 1.07-1.034 1.572-1.54.19-.19.38-.385.57-.574 1.424-1.418 1.424-3.255 0-4.674l-1.851-1.844c-.21-.209-.427-.425-.63-.641a31.98 31.98 0 00-1.276-1.256c-.657-.649-1.444-.993-2.271-.993-.828 0-1.628.344-2.306.993l-.014.013-2.305 2.317A4.933 4.933 0 00.96 8.314c-.162 1.972.42 3.81.868 5.012 1.099 2.951 2.74 5.686 5.188 8.617 2.97 3.533 6.544 6.322 10.626 8.287 1.56.737 3.642 1.608 5.968 1.756.142.007.291.014.427.014 1.566 0 2.882-.56 3.913-1.675.006-.014.02-.02.027-.034.352-.425.76-.81 1.186-1.222.292-.277.59-.568.882-.871.671-.696 1.024-1.507 1.024-2.337 0-.838-.36-1.642-1.044-2.317l-3.723-3.721zm2.427 7.111c-.006 0-.006.007 0 0-.264.284-.535.54-.827.825-.44.418-.888.857-1.309 1.35-.684.73-1.492 1.074-2.55 1.074-.101 0-.21 0-.311-.007-2.014-.128-3.886-.911-5.29-1.58-3.838-1.85-7.208-4.478-10.009-7.807-2.312-2.776-3.858-5.343-4.882-8.098-.631-1.682-.862-2.992-.76-4.228.068-.79.373-1.445.936-2.006L6.04 4.154c.333-.31.685-.48 1.031-.48.427 0 .773.257.99.473l.02.02c.414.385.808.784 1.221 1.21.21.215.427.432.644.654l1.852 1.844c.719.716.719 1.378 0 2.094-.197.196-.387.392-.584.58-.57.582-1.112 1.122-1.702 1.649-.013.013-.027.02-.034.034-.583.58-.474 1.148-.352 1.533l.02.06c.482 1.162 1.16 2.256 2.19 3.56l.007.006c1.872 2.297 3.845 4.086 6.022 5.458.278.175.563.317.834.452.244.122.475.236.671.358.028.013.055.034.082.047.23.115.447.169.671.169.563 0 .916-.351 1.031-.466l2.32-2.31c.23-.23.596-.506 1.023-.506.42 0 .766.263.977.493l.013.013 3.737 3.722c.698.688.698 1.398.006 2.113zM18.274 7.612a8.611 8.611 0 014.679 2.418 8.598 8.598 0 012.427 4.66.909.909 0 00.902.756.913.913 0 00.909-1.067 10.403 10.403 0 00-2.936-5.64 10.474 10.474 0 00-5.663-2.924.92.92 0 00-1.057.743.902.902 0 00.739 1.054zM33.003 14.116c-.604-3.526-2.272-6.734-4.835-9.287A17.23 17.23 0 0018.844.014a.912.912 0 00-1.052.743c-.08.5.251.966.753 1.053a15.429 15.429 0 018.334 4.303 15.28 15.28 0 014.32 8.3.909.909 0 00.902.756c.054 0 .102-.006.156-.013a.895.895 0 00.746-1.04z"/></svg></svg>