<?xml version="1.0" encoding="utf-8"?><svg viewBox="0 0 138 85" xmlns="http://www.w3.org/2000/svg" xmlns:xlink="http://www.w3.org/1999/xlink"><style>:root>svg{display:none}:root>svg:target{display:block}</style><svg viewBox="0 0 85 85" id="icon-1" xmlns="http://www.w3.org/2000/svg"><circle cx="42.5" cy="42.5" r="42"/><path d="M60.077 43.007c0-1.03-.09-2.06-.266-3.075l-1.462.255a16.327 16.327 0 01-6.715 16.179l-1.196-1.952a2.213 2.213 0 01-.093-2.16l.337-.674a.738.738 0 01.664-.41h1.046a2.217 2.217 0 002.068-1.399l1.004-2.512a2.2 2.2 0 00.16-.827V44.8a1.476 1.476 0 00-.435-1.05l-.891-.89a1.484 1.484 0 00-1.714-.279l-1.826.914a.742.742 0 01-.664 0l-2.968-1.484a.738.738 0 01-.408-.663v-2.05c0-.82-.665-1.485-1.485-1.485a.742.742 0 01-.742-.742v-.743c0-.233.11-.453.297-.593l2.375-1.781-.89-1.188-2.375 1.781a2.239 2.239 0 00-.891 1.781v.743c0 1.23.997 2.226 2.226 2.226v2.051a2.214 2.214 0 001.231 1.992l2.969 1.484a2.236 2.236 0 001.991 0l1.827-.913.89.89v1.634a.731.731 0 01-.053.275l-1.005 2.512a.738.738 0 01-.689.467h-1.046a2.213 2.213 0 00-1.991 1.23l-.338.675a3.69 3.69 0 00.155 3.599l1.21 1.975a16.27 16.27 0 01-14.927.675l.91-.608a.744.744 0 01.41-.126h1.904a2.211 2.211 0 001.575-.652l2.099-2.1c.419-.416.654-.983.652-1.574v-3.428c0-.402-.11-.797-.315-1.142l-1.586-2.651a2.24 2.24 0 00-1.902-1.07h-2.083c-.745 0-1.442.372-1.855.992l-.82 1.235h-1.83c-.82 0-1.484.664-1.484 1.484v1.418a.741.741 0 01-.34.623l-2.315 1.493a16.23 16.23 0 01-2.521-9.471h1.29c.282-.001.539.158.664.41l.869 1.742c.251.502.766.819 1.328.816h.783a1.484 1.484 0 001.43-1.892l-.946-3.303h1.465c.506 0 .996-.172 1.391-.488l2.423-1.938a2.23 2.23 0 00.655-2.615l-1.27-2.969a.742.742 0 01.3-.929l1.869-1.121a2.236 2.236 0 001.08-1.936l-.012-1.086a16.296 16.296 0 017.211.272l.38-1.431a17.812 17.812 0 1013.21 17.21zm-22.284-15.7l.009.756a.74.74 0 01-.36.645l-1.87 1.121a2.236 2.236 0 00-.9 2.788l1.27 2.968a.742.742 0 01-.218.873l-2.422 1.937a.742.742 0 01-.463.159h-1.465a1.484 1.484 0 00-1.43 1.893l.946 3.302h-.783l-.87-1.738a2.213 2.213 0 00-1.99-1.23h-1.154a16.367 16.367 0 0111.7-13.474zM29.33 52.952l2.268-1.462a2.218 2.218 0 001.02-1.87v-1.418h1.829c.496 0 .96-.248 1.235-.661l.823-1.235a.742.742 0 01.617-.33h2.083c.257 0 .496.133.63.351l1.583 2.647c.07.115.105.246.105.38v3.428a.742.742 0 01-.217.525l-2.099 2.1a.74.74 0 01-.525.217h-1.904c-.44 0-.87.13-1.236.374l-1.583 1.057a16.46 16.46 0 01-4.63-4.103zM21.535 43.73l-1.48.102c.034.503.087 1.011.156 1.51l1.47-.203a21.169 21.169 0 01-.146-1.41zM23.785 32.748l-1.319-.681c-.231.445-.45.91-.65 1.375l1.362.589c.188-.434.393-.865.607-1.283zM21.924 46.536l-1.454.305c.104.495.223.99.363 1.475l1.428-.403c-.127-.453-.24-.915-.337-1.377zM21.905 38.084l-1.454-.297c-.1.492-.186.996-.253 1.498l1.471.197c.063-.469.142-.94.236-1.398zM25.257 30.323l-1.215-.855c-.289.412-.569.84-.83 1.273l1.268.77c.245-.405.507-.804.777-1.188zM22.661 35.352l-1.4-.493a22.41 22.41 0 00-.455 1.45l1.431.396c.124-.452.267-.907.424-1.353zM21.53 40.892l-1.485-.096c-.03.485-.045.974-.045 1.469v.047l1.484-.047c0-.46.015-.918.046-1.373zM22.692 49.264l-1.397.5c.17.477.359.951.56 1.41l1.36-.593c-.188-.43-.364-.872-.523-1.317zM27.042 28.119l-1.087-1.01c-.343.37-.679.756-.996 1.146l1.153.935c.296-.365.61-.725.93-1.072zM39.37 21.686l-.208-1.471c-.497.069-1 .157-1.496.26l.305 1.455c.462-.099.933-.18 1.4-.244zM42.197 21.484L42.19 20c-.507 0-1.018.02-1.517.056l.105 1.484c.469-.037.941-.056 1.419-.056zM36.593 22.268l-.403-1.428c-.483.136-.97.292-1.447.463l.502 1.397c.444-.16.898-.304 1.348-.432zM29.11 26.179l-.94-1.15c-.39.32-.775.657-1.142 1.002l1.015 1.082a20.83 20.83 0 011.066-.934zM33.929 23.224l-.594-1.36c-.46.202-.92.423-1.368.657l.687 1.315c.417-.219.846-.422 1.275-.612zM31.419 24.536l-.777-1.266c-.43.264-.856.546-1.266.838l.86 1.21c.384-.271.78-.536 1.183-.782zM50.558 61.324l.594 1.36c.463-.2.922-.42 1.37-.653l-.683-1.317c-.419.217-.85.422-1.28.61zM57.455 56.444l1.085 1.014c.345-.37.681-.754 1-1.145l-1.152-.937c-.297.365-.612.725-.933 1.068zM55.385 58.38l.938 1.151c.39-.318.774-.654 1.143-.998l-1.013-1.085c-.346.323-.702.634-1.068.933zM59.247 54.245l1.212.86c.29-.413.572-.84.834-1.272l-1.267-.771a22.46 22.46 0 01-.78 1.183zM53.071 60.018l.772 1.267a22.79 22.79 0 001.268-.834l-.858-1.212c-.382.273-.782.535-1.182.779zM47.892 62.274l.4 1.43c.485-.136.973-.291 1.449-.46l-.5-1.399c-.445.161-.897.303-1.35.429zM62.998 43.683l1.48.1c.034-.504.052-1.014.052-1.518h-1.485c0 .476-.016.95-.047 1.418zM62.615 46.49l1.454.298c.102-.492.188-.997.256-1.498l-1.47-.2c-.064.471-.145.941-.24 1.4zM61.853 49.22l1.398.497c.17-.478.325-.965.46-1.449l-1.43-.399c-.127.45-.27.905-.428 1.351zM60.722 51.822l1.317.684c.233-.445.452-.91.654-1.373l-1.362-.594c-.187.434-.393.865-.61 1.283zM23.826 51.857l-1.316.687c.234.446.485.891.747 1.32l1.27-.773c-.248-.4-.482-.815-.701-1.234zM28.238 59.557c.393.32.8.629 1.211.918l.853-1.215a21.762 21.762 0 01-1.131-.856l-.933 1.153zM33.42 62.703c.46.2.936.387 1.416.557l.495-1.4c-.445-.158-.89-.332-1.32-.519l-.592 1.362zM30.719 61.306c.433.263.88.513 1.326.742l.682-1.32a20.69 20.69 0 01-1.238-.694l-.77 1.272zM26.012 57.484c.346.371.708.731 1.075 1.073l1.012-1.086c-.343-.32-.681-.656-1.005-1.001l-1.082 1.014zM25.304 54.275l-1.21.858c.29.411.6.816.92 1.208l1.146-.94a20.874 20.874 0 01-.856-1.126zM45.117 62.851l.2 1.47a22.168 22.168 0 001.498-.257l-.3-1.454c-.465.096-.933.177-1.398.241zM39.26 64.328c.496.067 1.005.118 1.511.149l.1-1.484c-.475-.032-.95-.08-1.41-.142l-.201 1.477zM42.287 63.045v1.484c.508 0 1.019-.017 1.519-.052l-.102-1.484c-.468.035-.94.052-1.417.052z"/><path d="M36.285 63.717c.488.136.985.256 1.477.357l.297-1.454c-.46-.094-.923-.206-1.377-.333l-.397 1.43zM48.35 26.263l-.426 7.259a3.714 3.714 0 001.08 2.842l1.44 1.438 2.62-6.818 2.65 2.649v3.276c-.002.59.233 1.155.652 1.57l1.287 1.288 1.574-2.623.377.377a2.227 2.227 0 103.149-3.148l-.377-.377L65 32.42l-1.287-1.289a2.208 2.208 0 00-1.574-.652H58.86l-2.644-2.648 6.822-2.624-1.443-1.44a3.703 3.703 0 00-2.841-1.08l-7.259.427-2.387-2.388a2.281 2.281 0 00-3.149 0c-.87.87-.87 2.279 0 3.149l2.39 2.387zm1.534 8.86a2.233 2.233 0 01-.479-1.515l.35-5.937 2.164 2.164-2.035 5.288zm7.476 2.243a.749.749 0 01-.162-.463v-1.79l.949.948-.787 1.305zm4.778-5.404c.169 0 .332.058.464.162l-1.307.79-.948-.948 1.791-.004zm-3.296-7.793a2.226 2.226 0 011.514.48l-5.29 2.034-2.165-2.164 5.94-.35zM47.01 21.777a.742.742 0 011.049 0L61.703 35.42c.29.29.29.76 0 1.049a.759.759 0 01-1.05 0L47.01 22.825a.742.742 0 010-1.048z"/></svg><svg viewBox="0 0 85 85" id="icon-2" xmlns="http://www.w3.org/2000/svg"><circle cx="42.5" cy="42.5" r="42"/><path d="M41.144 19.042A3.534 3.534 0 0038.63 18c-.725 0-1.417.215-2.003.616A3.531 3.531 0 0034.624 18c-.95 0-1.844.37-2.516 1.042a3.534 3.534 0 00-1.042 2.515c0 .95.37 1.844 1.042 2.516l4.006 4.005a.723.723 0 001.025 0l4.005-4.005a3.562 3.562 0 000-5.031zm-1.026 4.005l-3.492 3.493-3.492-3.493a2.093 2.093 0 01-.617-1.49c0-.562.219-1.091.617-1.49a2.093 2.093 0 011.49-.617c.562 0 1.091.22 1.49.618a.725.725 0 001.025 0 2.093 2.093 0 011.49-.618 2.11 2.11 0 011.49 3.597zM47.844 26.915a2.126 2.126 0 00-1.514-.627 2.13 2.13 0 00-1.002.247 2.132 2.132 0 00-1.001-.247c-.572 0-1.11.222-1.514.627a2.127 2.127 0 00-.627 1.514c0 .572.222 1.11.627 1.514l2.003 2.003a.726.726 0 001.026 0l2.002-2.003a2.144 2.144 0 000-3.028zm-1.026 2.003l-1.49 1.49-1.49-1.49a.686.686 0 01-.202-.49c0-.184.072-.357.203-.488a.687.687 0 01.977 0 .726.726 0 001.026 0 .686.686 0 01.976 0c.27.27.27.708 0 .977z"/><path d="M59.594 29.68c-.18 0-4.428.026-6.666 2.263l-4.495 4.496-21.482-5.37-.015-.002a.757.757 0 00-.252-.012l-.032.004a.709.709 0 00-.04.009l-.026.006a.65.65 0 00-.045.014l-.02.007a.763.763 0 00-.108.051l-.018.01a.762.762 0 00-.039.027l-.021.015a.778.778 0 00-.058.05l-.014.012-2.051 2.051c-.004.004-.006.008-.01.01a.76.76 0 00-.05.06l-.01.012-.01.014a.8.8 0 00-.097.195.634.634 0 00-.033.17.757.757 0 00.023.241.704.704 0 00.104.223.882.882 0 00.071.088l.012.013.011.01a.963.963 0 00.059.05l.011.01L39.342 45.53l-7.293 7.292-3.676-1.226-.022-.006-.04-.011-.037-.007a.603.603 0 00-.073-.01l-.029-.002H28.102a.67.67 0 00-.111.016l-.029.006a.762.762 0 00-.04.012l-.027.01a.785.785 0 00-.043.017l-.022.01a.777.777 0 00-.047.025l-.013.007-.01.005-.003.002-3.399 2.04a.086.086 0 00-.005.003h-.001l-.006.004a.693.693 0 00-.054.037l-.016.013c-.013.01-.026.02-.038.032-.009.007-.017.015-.024.023l-.026.026-.03.037-.015.018a.67.67 0 00-.036.054l-.004.005a.729.729 0 00-.08.19l-.002.008a.749.749 0 00-.01.054l-.003.015c-.003.015-.004.03-.005.046L24 54.3V54.37l.002.023c.001.016.002.032.005.048l.002.013a.681.681 0 00.011.056l.001.003c.009.033.02.066.034.1l.012.029.004.007.03.057.001.002.003.003a.71.71 0 00.046.068l.016.018a.705.705 0 00.044.048l.017.018c.02.018.04.036.063.053l.021.014c.013.01.025.018.039.026l6.04 3.625-.71.71a.725.725 0 101.025 1.026l.711-.71 3.62 6.033.004.006.002.003c.015.024.03.047.049.07l.014.017a.7.7 0 00.045.05l.016.016c.02.019.04.037.063.053l.02.014.04.027.01.004c.017.01.035.02.054.028l.034.016c.016.007.032.012.049.017l.042.014c.014.004.029.006.043.009.016.003.033.007.05.009l.059.004.032.002h.001l.032-.002.06-.004c.016-.002.033-.006.05-.01.013-.002.028-.004.042-.008l.043-.014c.016-.005.032-.01.048-.017l.035-.016a.653.653 0 00.053-.028l.01-.004.04-.028.02-.013a.697.697 0 00.063-.054l.016-.015a.772.772 0 00.045-.05l.014-.017a.722.722 0 00.049-.07l.001-.002.001-.002.003-.005 2.047-3.412.012-.023.019-.034a.656.656 0 00.015-.034l.012-.03a.636.636 0 00.012-.038l.01-.03.008-.038c.002-.01.005-.02.006-.031a.882.882 0 00.003-.213l-.006-.033-.007-.036a.625.625 0 00-.01-.037l-.008-.025-1.226-3.677 20.876-20.876.003-.003c2.238-2.237 2.263-6.486 2.263-6.665 0-.401-.324-.726-.725-.726zm-33.761 4.061l1.165-1.165 20.238 5.06-6.857 6.857L25.833 33.74zm31.2 2.302l-.002.002-21.196 21.196-.007.008-.029.031-.02.024-.02.029a.665.665 0 00-.023.031l-.013.023a.766.766 0 00-.022.04l-.01.02a.801.801 0 00-.019.043l-.008.023-.014.042-.007.03-.009.037-.005.039-.004.029a.787.787 0 00-.002.043v.027l.001.041.002.03a.71.71 0 00.006.035c.001.013.003.025.006.037l.007.029a.715.715 0 00.012.043l.002.009 1.263 3.785-1.258 2.097-3.19-5.316 3.019-3.018a.725.725 0 10-1.025-1.026l-3.019 3.019-5.315-3.19 2.096-1.257 3.786 1.262a.718.718 0 00.105.026l.025.003c.03.005.06.007.09.008h.02a.729.729 0 00.205-.033l.018-.006a.723.723 0 00.08-.033l.015-.007a.723.723 0 00.083-.05l.02-.015a.726.726 0 00.06-.05c.006-.005.013-.01.018-.016l.003-.002 21.196-21.196c1.311-1.311 3.662-1.687 4.873-1.795-.106 1.209-.48 3.553-1.794 4.869z"/><path d="M58.949 63.173a.705.705 0 00-.017-.11l-.003-.015-4.648-18.598a.725.725 0 00-1.407.352l4.549 18.2-1.165 1.164-9.38-12.69a.725.725 0 00-1.166.863l9.88 13.367.008.01a.758.758 0 00.036.042l.02.022.007.007.032.03.02.018c.021.017.042.032.063.046l.019.011.05.029.024.011a.695.695 0 00.05.02l.025.01.05.014.026.007a.826.826 0 00.054.01l.023.002c.025.003.05.005.075.005h.004a.722.722 0 00.097-.008l.023-.003a.72.72 0 00.094-.023l.018-.006c.03-.01.06-.023.09-.037l.008-.004a.706.706 0 00.09-.056l.008-.005.012-.01a.65.65 0 00.059-.05l.011-.01 2.051-2.051.012-.013a.724.724 0 00.152-.242l.01-.029a.705.705 0 00.012-.036l.008-.034.007-.033a.706.706 0 00.01-.108v-.031a.795.795 0 00-.002-.038z"/></svg><svg viewBox="0 0 85 85" id="icon-3" xmlns="http://www.w3.org/2000/svg"><circle cx="42.5" cy="42.5" r="42"/><path d="M62 63.5V35a.75.75 0 00-.568-.728L47 30.664V26.75a.75.75 0 00-.557-.725l-22.5-6a.75.75 0 00-.943.725V63.5h-3V65h45v-1.5h-3zM24.5 21.725l21 5.6V63.5h-3.75v-8.25a.75.75 0 00-.75-.75H29a.75.75 0 00-.75.75v8.25H24.5V21.725zM29.75 56h4.5v7.5h-4.5V56zm6 7.5V56h4.5v7.5h-4.5zm15.75 0v-6H56v6h-4.5zm6 0v-6.75a.75.75 0 00-.75-.75h-6a.75.75 0 00-.75.75v6.75h-3V32.21l13.5 3.376V63.5h-3z"/><path d="M29.75 51.5h3a.75.75 0 00.75-.75v-3a.75.75 0 00-.75-.75h-3a.75.75 0 00-.75.75v3c0 .415.336.75.75.75zm.75-3H32V50h-1.5v-1.5zM37.25 51.5h3a.75.75 0 00.75-.75v-3a.75.75 0 00-.75-.75h-3a.75.75 0 00-.75.75v3c0 .415.336.75.75.75zm.75-3h1.5V50H38v-1.5zM52.25 48.5h-3a.75.75 0 00-.75.75v3c0 .415.336.75.75.75h3a.75.75 0 00.75-.75v-3a.75.75 0 00-.75-.75zm-.75 3H50V50h1.5v1.5zM58.25 48.5h-3a.75.75 0 00-.75.75v3c0 .415.336.75.75.75h3a.75.75 0 00.75-.75v-3a.75.75 0 00-.75-.75zm-.75 3H56V50h1.5v1.5zM52.25 42.5h-3a.75.75 0 00-.75.75v3c0 .415.336.75.75.75h3a.75.75 0 00.75-.75v-3a.75.75 0 00-.75-.75zm-.75 3H50V44h1.5v1.5zM58.25 42.5h-3a.75.75 0 00-.75.75v3c0 .415.336.75.75.75h3a.75.75 0 00.75-.75v-3a.75.75 0 00-.75-.75zm-.75 3H56V44h1.5v1.5zM52.25 36.5h-3a.75.75 0 00-.75.75v3c0 .415.336.75.75.75h3a.75.75 0 00.75-.75v-3a.75.75 0 00-.75-.75zm-.75 3H50V38h1.5v1.5zM58.25 36.5h-3a.75.75 0 00-.75.75v3c0 .415.336.75.75.75h3a.75.75 0 00.75-.75v-3a.75.75 0 00-.75-.75zm-.75 3H56V38h1.5v1.5zM29.75 45.5h3a.75.75 0 00.75-.75v-3a.75.75 0 00-.75-.75h-3a.75.75 0 00-.75.75v3c0 .415.336.75.75.75zm.75-3H32V44h-1.5v-1.5zM37.25 45.5h3a.75.75 0 00.75-.75v-3a.75.75 0 00-.75-.75h-3a.75.75 0 00-.75.75v3c0 .415.336.75.75.75zm.75-3h1.5V44H38v-1.5zM29.75 39.5h3a.75.75 0 00.75-.75v-3a.75.75 0 00-.75-.75h-3a.75.75 0 00-.75.75v3c0 .415.336.75.75.75zm.75-3H32V38h-1.5v-1.5zM37.25 39.5h3a.75.75 0 00.75-.75v-3a.75.75 0 00-.75-.75h-3a.75.75 0 00-.75.75v3c0 .415.336.75.75.75zm.75-3h1.5V38H38v-1.5zM29.75 33.5h3a.75.75 0 00.75-.75v-3a.75.75 0 00-.75-.75h-3a.75.75 0 00-.75.75v3c0 .415.336.75.75.75zm.75-3H32V32h-1.5v-1.5zM37.25 33.5h3a.75.75 0 00.75-.75v-3a.75.75 0 00-.75-.75h-3a.75.75 0 00-.75.75v3c0 .415.336.75.75.75zm.75-3h1.5V32H38v-1.5z"/></svg><svg viewBox="0 0 85 85" id="icon-4" xmlns="http://www.w3.org/2000/svg"><circle cx="42.5" cy="42.5" r="42"/><path d="M63.675 56.335h-4.36a.649.649 0 110-1.297h4.36a.435.435 0 00.434-.435v-2.05a5.305 5.305 0 00-5.3-5.3H21.3v6.597a1.188 1.188 0 001.186 1.188h2.757a.648.648 0 110 1.297h-2.757a2.487 2.487 0 01-2.484-2.485v-7.245a.648.648 0 01.649-.649h38.16a6.604 6.604 0 016.596 6.597v2.05a1.734 1.734 0 01-1.731 1.732z"/><path d="M51.35 56.335H33.402a.649.649 0 110-1.297H51.35a.648.648 0 110 1.297zM20.65 47.257a.659.659 0 01-.373-.117.649.649 0 01-.262-.672 14.459 14.459 0 015.428-8.044 5.087 5.087 0 012.906-.898h16.38a6.411 6.411 0 014.697 2.056l6.078 6.585a.65.65 0 11-.952.88l-6.075-6.583a5.112 5.112 0 00-3.745-1.64H28.35a3.795 3.795 0 00-2.169.672c-3.837 2.648-4.887 7.207-4.896 7.253a.649.649 0 01-.634.508z"/><path d="M40.758 47.257a.649.649 0 01-.64-.55l-1.297-8.432a.65.65 0 111.281-.195l1.298 8.432a.649.649 0 01-.642.745zM28.434 47.257a.649.649 0 01-.62-.84l2.594-8.432a.65.65 0 011.034-.309.649.649 0 01.206.69L29.054 46.8a.649.649 0 01-.62.458zM55.339 60.512a4.635 4.635 0 11-.002-9.27 4.635 4.635 0 01.002 9.27zm0-7.974a3.339 3.339 0 10-.001 6.68 3.339 3.339 0 000-6.681v.001z"/><path d="M55.339 58.054a2.18 2.18 0 11-.001-4.359 2.18 2.18 0 010 4.36zm0-3.06a.882.882 0 10-.001 1.764.882.882 0 000-1.765zM29.323 58.054a2.179 2.179 0 110-4.358 2.179 2.179 0 010 4.358zm0-3.06a.883.883 0 100 1.765.883.883 0 000-1.766z"/><path d="M29.323 60.608a4.735 4.735 0 110-9.47 4.735 4.735 0 010 9.47zm0-8.169a3.439 3.439 0 100 6.877 3.439 3.439 0 000-6.877zM45.947 50.5H44.65a.648.648 0 110-1.297h1.297a.648.648 0 110 1.297zM38.488 50.5H37.19a.648.648 0 110-1.297h1.298a.648.648 0 110 1.297zM40.542 38.825h-8.027a.648.648 0 01-.649-.649v-2.595a.65.65 0 01.649-.648h8.027a.65.65 0 01.649.648v2.595a.649.649 0 01-.649.649zm-7.378-1.298h6.73V36.23h-6.73v1.297z"/><path d="M46.365 36.23H26.691a.649.649 0 110-1.297h19.674a.649.649 0 010 1.297z"/><path d="M44.78 36.227H33.025a.649.649 0 010-1.297H44.13V26.68a.381.381 0 00-.382-.382h-9.694a.382.382 0 00-.382.382v2.374a.648.648 0 11-1.297 0v-2.374A1.68 1.68 0 0134.055 25h9.693a1.68 1.68 0 011.68 1.679v8.9a.649.649 0 01-.648.648z"/><path d="M38.901 36.23H28.688a.648.648 0 01-.648-.649v-5.5a1.682 1.682 0 011.68-1.68h8.15a1.682 1.682 0 011.68 1.68v5.5a.649.649 0 01-.649.649zm-9.564-1.297h8.916V30.08a.383.383 0 00-.383-.382h-8.15a.383.383 0 00-.383.382v4.852z"/></svg><svg viewBox="0 0 85 85" id="icon-5" xmlns="http://www.w3.org/2000/svg"><circle cx="42.5" cy="42.5" r="42"/><path d="M30.25 22.625a1.126 1.126 0 011.125-1.125h20.25a1.126 1.126 0 011.125 1.125v4.125h1.5v-4.125A2.628 2.628 0 0051.625 20h-20.25a2.628 2.628 0 00-2.625 2.625v4.125h1.5v-4.125zM52.75 59h-22.5v-2.25h-1.5v5.625A2.628 2.628 0 0031.375 65h20.25a2.628 2.628 0 002.625-2.625V56.75h-1.5V59zm-1.125 4.5h-20.25a1.126 1.126 0 01-1.125-1.125V60.5h22.5v1.875a1.126 1.126 0 01-1.125 1.125z"/><path d="M38.5 23.75h6v1.5h-6v-1.5zM62.5 53.563a.188.188 0 01-.188.187H20.688a.188.188 0 01-.188-.188V34.25H19v19.313a1.69 1.69 0 001.688 1.687h41.624A1.69 1.69 0 0064 53.562V47.75h-1.5v5.813zM62.313 28.25H20.687A1.69 1.69 0 0019 29.938v2.812h1.5v-2.813a.188.188 0 01.188-.187h41.624a.188.188 0 01.188.188V46.25H64V29.937a1.69 1.69 0 00-1.688-1.687z"/><path d="M46.75 47.75h1.5v3h-1.5v-3zM43.75 47.75h1.5v3h-1.5v-3zM49.75 47.75h3v3h-3v-3zM54.25 47.75h1.5v3h-1.5v-3zM57.25 47.75h3v3h-3v-3zM43.75 40.25h10.5v1.5h-10.5v-1.5zM55.75 40.25h4.5v1.5h-4.5v-1.5zM49.75 43.25h10.5v1.5h-10.5v-1.5zM43.75 43.25h4.5v1.5h-4.5v-1.5zM43.75 37.25h3v1.5h-3v-1.5zM48.25 37.25h6v1.5h-6v-1.5zM52.75 32.75h1.5v1.5h-1.5v-1.5zM55.75 32.75h1.5v1.5h-1.5v-1.5zM58.75 32.75h1.5v1.5h-1.5v-1.5zM43.75 34.25h6.75v1.5h-6.75v-1.5zM40 52.25a.75.75 0 00.75-.75V32a.75.75 0 00-.75-.75H23.5a.75.75 0 00-.75.75v19.5a.75.75 0 00.75.75H40zm-15.75-3.3a2.071 2.071 0 011.338-1.932l3.65-1.368.412.55a2.626 2.626 0 004.2 0l.413-.55 3.648 1.369a2.071 2.071 0 011.339 1.93v1.801h-15v-1.8zm8.914-4.336l-.514.686a1.125 1.125 0 01-1.8 0l-.514-.686.455-1.364h1.918l.455 1.364zM34 40.625a1.126 1.126 0 01-1.125 1.125h-2.25a1.126 1.126 0 01-1.125-1.125v-3.75a1.126 1.126 0 011.125-1.125h2.25A1.126 1.126 0 0134 36.875v3.75zm5.25-7.875v13.296a3.528 3.528 0 00-.812-.433l-3.84-1.44-.423-1.268a2.626 2.626 0 001.325-2.28v-3.75a2.628 2.628 0 00-2.625-2.625h-2.25A2.628 2.628 0 0028 36.875v3.75a2.626 2.626 0 001.325 2.28l-.423 1.268-3.84 1.44a3.528 3.528 0 00-.812.433V32.75h15z"/></svg><svg viewBox="0 0 85 85" id="icon-6" xmlns="http://www.w3.org/2000/svg"><circle cx="42.5" cy="42.5" r="42"/><path d="M61.523 39.908H49.465c.546-1.254.778-2.67.719-4.065 1.485.082 2.846-1.011 2.846-2.575a2.56 2.56 0 00-.453-1.455c.466-.31.774-.837.774-1.437v-1.232c0-.95-.773-1.724-1.724-1.724h-1.443v-4.353A5.073 5.073 0 0045.117 18h-7.132a5.073 5.073 0 00-5.068 5.067v4.353h-1.443c-.95 0-1.724.773-1.724 1.724v1.232c0 .6.308 1.128.774 1.437a2.56 2.56 0 00-.453 1.455c0 1.501 1.33 2.723 2.846 2.575-.132 1.32.218 2.903.723 4.065H21.578A2.581 2.581 0 0019 42.486v6.902a2.581 2.581 0 002.578 2.579h2.774a6.342 6.342 0 00-.144.775c-.337-.011-.674.079-.967.267a1.628 1.628 0 00-.754 1.373v2.15h-.933c-.634 0-1.193.451-1.328 1.071a13.872 13.872 0 000 5.92c.135.62.694 1.07 1.328 1.07h.933v.704a.703.703 0 001.406 0v-.703h.4c1.29 0 2.34-1.05 2.34-2.341v-3.379a2.344 2.344 0 00-2.34-2.341h-.4v-2.151c.01-.186.18-.293.382-.209l7.393 3.363v7.76a.703.703 0 001.406 0v-7.76l7.774-3.537v11.298a.703.703 0 001.406 0V53.999c.173.086 7.588 3.447 7.774 3.537v7.76a.703.703 0 001.406 0v-7.76l7.393-3.363c.206-.083.372.023.382.209v2.15h-.4a2.344 2.344 0 00-2.341 2.342v3.379a2.344 2.344 0 002.341 2.34h.4v.704a.703.703 0 001.406 0v-.703h.932c.634 0 1.193-.45 1.329-1.07a13.88 13.88 0 000-5.92 1.369 1.369 0 00-1.329-1.071h-.932v-2.151c0-.555-.282-1.068-.755-1.372a1.685 1.685 0 00-.966-.268 6.34 6.34 0 00-.145-.775h2.774a2.581 2.581 0 002.578-2.579v-6.901a2.581 2.581 0 00-2.578-2.579zM22.87 50.56h-1.292a1.173 1.173 0 01-1.172-1.172v-6.901c0-.647.526-1.172 1.172-1.172h1.292v9.245zm1.422 7.38c.516 0 .935.419.935.934v3.379c0 .515-.42.935-.935.935h-2.7a12.468 12.468 0 010-5.249h2.7zm37.218 0a12.459 12.459 0 010 5.248h-2.7a.936.936 0 01-.936-.936v-3.378c0-.516.42-.935.935-.935h2.7zm-5.497-16.625v6.857a6.331 6.331 0 00-2.041-.846l-6.907-1.517a1.178 1.178 0 01-.92-1.145v-.9a8.7 8.7 0 002.541-2.45h7.327zm-5.829-6.878V32.1c.722-.11 1.44.411 1.44 1.168 0 .743-.71 1.284-1.44 1.169zm-15.86-11.37a3.665 3.665 0 013.66-3.66h7.133a3.665 3.665 0 013.66 3.66v4.353H34.325v-4.353zm-1.407 11.37c-.739.09-1.44-.393-1.44-1.169 0-.754.721-1.276 1.44-1.168v2.337zm-1.443-3.744a.317.317 0 01-.317-.317v-1.232c0-.175.142-.317.317-.317h20.153c.175 0 .318.142.318.317v1.232a.318.318 0 01-.318.317H39.834a.703.703 0 000 1.407h8.944v4.353a7.184 7.184 0 01-2.116 5.11c-.469.468-.99.862-1.552 1.18a7.078 7.078 0 01-3.56.937c-3.984 0-7.227-3.242-7.227-7.227V32.1h2.23a.703.703 0 100-1.407h-5.08zm13.684 15.37l-3.607 3.608-3.607-3.607c.3-.46.444-1.023.42-1.588.986.394 2.061.61 3.187.61 1.11 0 2.186-.21 3.187-.607-.048.546.132 1.143.42 1.585zm-18.07-4.748h7.332a8.703 8.703 0 002.537 2.444v.905c0 .547-.387 1.028-.92 1.145l-6.907 1.517c-.728.16-1.419.45-2.041.846v-6.857zm-2.197 9.245h-.615v-9.245h1.407v8.077a6.26 6.26 0 00-.792 1.168zm7.48 5.75l-6.795-3.09c.13-2.173 1.71-4.048 3.856-4.52l4.248-.934 5.464 5.463-6.774 3.082zm18.36 0l-6.773-3.08 1.328-1.329a.703.703 0 10-.994-.994l-1.703 1.702a2.681 2.681 0 00-2.077 0l-5.201-5.201 1.027-.226c.191-.042.373-.107.546-.189l4.037 4.037a.885.885 0 00.63.26.884.884 0 00.63-.26l4.036-4.037c.172.082.354.147.546.19l1.027.225-1.156 1.156a.703.703 0 10.994.995l1.793-1.793 4.248.934c2.146.472 3.727 2.347 3.856 4.52l-6.794 3.09zm8.094-5.75h-.614a6.272 6.272 0 00-.792-1.168v-8.077h1.406v9.245zm3.87-1.172c0 .647-.526 1.172-1.172 1.172h-1.292v-9.245h1.292c.646 0 1.172.525 1.172 1.172v6.901zM45.377 35.935a.703.703 0 00.703-.703v-1.53a.703.703 0 00-1.406 0v1.53c0 .388.314.703.703.703zm-8.356-2.233v1.53a.703.703 0 001.407 0v-1.53a.703.703 0 00-1.407 0zm2.661 6.63c.39.214 1.024.47 1.828.479a4.015 4.015 0 001.91-.48.703.703 0 10-.677-1.232c-.26.142-.683.312-1.218.306a2.49 2.49 0 01-1.167-.306.703.703 0 10-.676 1.233z"/></svg><svg viewBox="0 0 85 85" id="icon-7" xmlns="http://www.w3.org/2000/svg"><circle cx="42.5" cy="42.5" r="42"/><path d="M46.58 49.18a8.994 8.994 0 108.994-8.993 9.004 9.004 0 00-8.994 8.993zm8.994-7.195a7.195 7.195 0 11-7.195 7.195 7.203 7.203 0 017.195-7.195zM50.435 67.168h10.279v1.799h-10.28v-1.799zM46.58 63.57h17.988v1.8H46.58v-1.8zM26.794 63.57h1.798v1.8h-1.798v-1.8zM21.398 65.37h1.798v1.798h-1.799V65.37z"/><path d="M26.883 58.51a68.116 68.116 0 008.653-26.622l8.365 8.315a.898.898 0 001.434-.236 8.78 8.78 0 00-1.648-10.148l-.735-.735h6.326a.899.899 0 00.854-1.185 8.781 8.781 0 00-8.341-6.01h-1.17l4.492-4.518a.9.9 0 00-.236-1.44 8.783 8.783 0 00-10.153 1.648l-.858.859a8.8 8.8 0 00-.78.899 8.636 8.636 0 00-.773-.9l-.859-.858a8.78 8.78 0 00-10.147-1.647.9.9 0 00-.235 1.439l4.497 4.518h-1.181a8.781 8.781 0 00-8.341 6.01.9.9 0 00.853 1.184h6.32l-.735.736a8.78 8.78 0 00-1.648 10.148.899.899 0 001.439.236l7.789-7.743a48.747 48.747 0 01-9.404 23.769 33.53 33.53 0 00-3.67-.748l-.563-.057-.18 1.79.525.052c.9.129 1.793.31 2.682.516-.18.226-.36.455-.546.677l1.38 1.154a50.636 50.636 0 0011.765-29.132l1.035-1.029.775.771A65.76 65.76 0 0122.46 62.151l1.474 1.031a60.636 60.636 0 002.035-3.124 31.9 31.9 0 0110.882 8.526l1.392-1.14a33.588 33.588 0 00-5.973-5.672h37.695v-1.8h-40.36a33.113 33.113 0 00-2.72-1.462zM44.2 37.962l-9.503-9.448a6.938 6.938 0 016.866 1.718l.86.86a6.983 6.983 0 011.777 6.87zm3.706-10.677h-7.447a8.77 8.77 0 00-5.571-.665 6.975 6.975 0 015.685-2.933h1.214a6.983 6.983 0 016.119 3.598zm-12.772-7.576l.86-.858a6.988 6.988 0 016.874-1.779l-5.331 5.363a8.771 8.771 0 00-4.246 3.333 6.807 6.807 0 011.846-6.059h-.003zm-4.954-.858l.859.858c.4.41.748.867 1.034 1.363a8.554 8.554 0 00-.687 2.99 8.774 8.774 0 00-2.743-1.627l-5.333-5.363a6.985 6.985 0 016.872 1.779h-.002zm-5.795 4.836h1.214a6.977 6.977 0 015.691 2.932 8.774 8.774 0 00-5.568.666h-7.45a6.984 6.984 0 016.116-3.598h-.003zm-2.407 14.275a6.983 6.983 0 011.778-6.87l.86-.86a6.874 6.874 0 014.876-2.007c.674 0 1.345.096 1.993.286l-9.507 9.451z"/></svg><svg viewBox="0 0 138 62" id="logo" xmlns="http://www.w3.org/2000/svg"><path d="M40.404 26.156l.162 1.584c1.944-.414 6.534-.864 8.46-1.062-1.638.972-3.348 3.276-3.348 6.066 0 4.032 3.78 5.796 7.11 5.922l.522-1.476c-2.916-.108-6.21-1.242-6.21-4.752 0-2.124 1.566-4.878 4.14-5.706.918-.252 2.484-.288 3.528-.27l-.018-1.44c-1.206.036-2.88.144-4.86.306a492.31 492.31 0 00-7.866.738c-.36.036-.936.072-1.62.09zm11.754 2.502l-.9.396c.54.756 1.044 1.674 1.458 2.538l.936-.414c-.396-.81-1.08-1.926-1.494-2.52zm1.962-.756l-.882.414a17.722 17.722 0 011.53 2.52l.918-.45a21.122 21.122 0 00-1.566-2.484zm14.796-3.258l-1.602-.648c-.216.54-.45.972-.648 1.404-.99 1.728-4.932 9.108-6.246 12.744l1.548.54c.252-.882 1.008-3.024 1.566-4.086.684-1.422 2.052-2.898 3.492-2.898.81 0 1.278.486 1.314 1.26.054.99.036 2.376.09 3.438.054 1.062.684 2.268 2.61 2.268 2.61 0 4.122-2.016 5.076-4.914l-1.206-.972c-.45 1.926-1.638 4.41-3.654 4.41-.774 0-1.386-.396-1.44-1.296-.072-.882-.036-2.25-.072-3.312-.054-1.422-.918-2.196-2.124-2.196-.864 0-1.8.342-2.664 1.116.918-1.746 2.574-4.734 3.384-5.976.198-.342.414-.666.576-.882zm13.446 1.026l.09 1.314c2.574.252 5.094.252 6.912.072 1.44-.126 2.97-.432 4.14-.774l-.198-1.314a18.713 18.713 0 01-4.248.864c-1.836.18-4.194.144-6.696-.162zm-.36 3.69l.09 1.35c3.096.234 6.426.18 8.64-.108 1.512-.18 2.88-.45 3.87-.72l-.234-1.332c-.954.288-2.412.648-4.122.828-2.106.252-5.166.306-8.244-.018zm6.156-3.924c.252.9.522 1.854.972 3.096.522 1.458 1.278 3.186 2.268 4.734a93.252 93.252 0 00-2.7-.288l-.108 1.098c1.242.126 2.916.306 3.924.558l.756-1.098a3.981 3.981 0 01-.684-.774c-.936-1.386-1.728-3.114-2.214-4.518-.45-1.278-1.008-3.096-1.188-4.608l-1.53.198c.198.522.36 1.08.504 1.602zm-3.528 7.812l-1.404-.306c-.414.792-.72 1.548-.72 2.574.036 2.322 2.016 3.366 5.526 3.366 1.548 0 2.952-.108 4.212-.324l.072-1.422c-1.314.252-2.628.378-4.302.378-2.826 0-4.14-.756-4.14-2.232 0-.81.324-1.422.756-2.034zm15.984-7.092l.162 1.584c1.944-.414 6.534-.864 8.46-1.062-1.638.972-3.348 3.276-3.348 6.066 0 4.032 3.78 5.796 7.11 5.922l.522-1.476c-2.916-.108-6.21-1.242-6.21-4.752 0-2.124 1.566-4.878 4.14-5.706.918-.252 2.484-.288 3.528-.27l-.018-1.44c-1.206.036-2.88.144-4.86.306a492.31 492.31 0 00-7.866.738c-.36.036-.936.072-1.62.09zm11.754 2.502l-.9.396c.54.756 1.044 1.674 1.458 2.538l.936-.414c-.396-.81-1.08-1.926-1.494-2.52zm1.962-.756l-.882.414a17.722 17.722 0 011.53 2.52l.918-.45a21.122 21.122 0 00-1.566-2.484zm16.236-4.158h-1.656c.036.162.09.666.126 1.152.054.99.072 4.572.072 5.364l1.368.702c-.018-1.44-.054-4.914 0-6.084 0-.216.054-.918.09-1.134zm-9.576 2.52l.036 1.386c2.718-.198 6.57-.324 9.666-.324 2.646 0 4.266.036 5.274.09l.018-1.332c-.846-.018-3.078-.018-5.274-.018-2.772 0-7.272.162-9.72.198zm9.45 5.22l-.99-.504c.288 1.926-.432 2.862-1.548 2.862-.99 0-1.836-.648-1.836-1.782 0-1.17.882-1.908 1.836-1.908.972 0 1.764.684 1.764 2.304 0 2.97-1.908 4.572-5.184 5.346l1.206 1.17c4.176-1.242 5.364-3.942 5.364-6.39 0-2.07-1.062-3.618-3.15-3.618-1.71 0-3.186 1.332-3.186 3.114 0 1.962 1.458 3.024 2.97 3.024 1.638 0 2.754-1.206 2.754-3.618z"/><path d="M30.444.102c16.8-.056 30.489 13.541 30.545 30.342.057 16.8-13.541 30.489-30.341 30.545-16.8.057-30.49-13.541-30.546-30.341C.046 13.848 13.643.158 30.443.102zm.007 2.255a28.05 28.05 0 00-12.037 2.767c2.642.523 4.89 1.675 5.427 1.554.823-.185 4.81.493 6.276 1.036 1.465.545 1.33 1.243 1.695 1.333.367.092.563.415 1.132 1.054.569.638-.278 1.41-.278 1.41s-2.17.496-2.54-1.119c-.22-.96.095.82.005 1.55-.089.732-1.45.92-2.185.008-.33-.41-.288-1.418-.499-1.76-.26-.419-.826-.096-1.128-.137-.182-.022.234.284.002.422-.467.278-1.43-.191-1.195.92.094.448 1.51.533 1.695 1.193.186.66.497 1.055.497 1.055l3.03.06.982-1.412s.963.413.71 1.266c-.175.588.285 1.268.285 1.268s1.551.242 1.553.699c0 .251.633.28.988.42.291.114.49.591.777.631.172.022 1.243.174 1.48.207.644.076.354.224.355.492.001.365-1.197.427-1.197.427s-.766.3-.49.847c.276.548-.194.776.355.774.238-.001.79-.078 1.338-.075.71-.003 1.393-.227 1.41.066.072 1.128.08 2.748.08 2.748s-.96.478-1.479.357c-.718-.164-1.766.4-2.258-.909-.038-.1-.064-.32-.142-.422-.341-.444-.711-1.34-1.274-1.616-.346-.173-.825-.06-.987-.068-.365-.02-.988-.49-.988-.49s-1.618.225-2.038 1.84c-.125.476-.002 1.257-.277 1.41-.167.093-.918-.702-.918-.702l-.846.074.49-1.13 1.544-1.767-.282-.135s-1.176.083-1.268.356c-.09.275-1.504.975-1.262 1.766.4 1.31-.559 1.623-.559 1.623s-.832.2-1.2-.49c-.319-.6-.355-1.125-.355-1.125l-1.058-.213s.093-2.195-1.065-2.251c-1.158-.055-1.268.004-1.268.004s-2.541.849-2.814 1.49c-.271.64-.395 1.248.427 1.337.823.09 2.044-.073 2.044-.073s3.232-.501 2.96.413c-.27.915-.557 1.834-.557 1.834s-.703-.071-1.338.07c-.68.158-1.55.076-1.55.076l-.136 1.551.423.14c.461.127 1.82.21 2.186.345.366.134 4.346-.575 4.438-.438.092.135 1.385.6 2.116.416.73-.186.91-1.906.91-1.906s.128-.82.63-.777l3.949.339s1.129.498 1.13.771c0 0 .318-.23.775-.002.458.227.692.747.877 1.112.184.366.046.629.94 1.129.367.638.327.358.606 1.5.278 1.142 1.064 3.551 1.5 4-.043.823.32 2.05-.5 2.5-.821.452-1.418 2.587-1.828 3.002-.41.412-2.613.755-2.888.573-.274-.181-1.26-.56-1.764-.558-.503.002-1.583.085-1.901.36-.319.275-.709.866-.981 1.553-.271.686-.541 1.845-.768 2.258-.228.412-1.092 1.199-.769 1.975.323.777.872 1.55.784 2.464-.088.914-.632 2.128-.837 2.54-.207.411-1.52 1.707-1.473 2.12.046.41-.343.31-.844.495-.502.185-2.642-.4-2.963-.765-.32-.364-.82-1.517-1.416-2.11-.596-.592-1.831-1.562-2.474-2.246-.641-.684-1.298-1.312-1.346-2.18-.047-.87.448-2.783-.01-3.101-.46-.319-1.095-.811-1.556-1.404-.459-.593-1.43-.542-2.122-2.46-.693-1.917-.92-2.512-.784-2.605.135-.092 1.226.357 1.411.63.184.274 1.253.339 1.482.559.23.22 1.269-.005 1.269-.005s-.446-1.73-.22-2.324c.227-.595 1.387-2.917 1.75-3.741.298-.676.348-1.457.204-1.974-.058.084-.095.13-.14.212-.16.292-1.035 1.333-1.401 2.4a29.193 29.193 0 01-1.678 3.953s-1.191.049-3.176-1.47c-1.352-1.031-2.793-1.08-3.036-1.61-.46-1.005 1.403-1.908 1.403-1.908l1.691-.005 1.261-2.19-.352-.14s-1.4 1.627-2.039 1.629c-.639.002-2.341-.14-2.887.503-.547.641-2.257 1.729-2.528 2.827-.271 1.097-.127 2.63-.623 3.173-.7.765-1.337.71-1.337.71l-.852-1.97-1.981-2.25-.42-.21c.091 15.55 12.722 28.076 28.28 28.024 7.382-.025 14.065-2.904 19.072-7.556l-.85-1.243-1-3.944 2.391-1.487L53 43.578l1.818-4.446s1.705-1.388 3.12-2.032c.51-2.137.805-4.354.797-6.649-.005-1.663-.185-3.283-.465-4.865-1.738-1.322-4.07-2.378-4.07-2.378s-1.285-.143.904-3.809c.316-.53.5-1.016.62-1.482a28.168 28.168 0 00-3.338-5.195c.114.668.562 3.446-.251 3.939-.91.551-1.793-1.137-1.979-1.685-.184-.548-2.096-2.631-2.831-3.726-.524-.78-.345-2.299.187-3.189-4.746-3.586-10.645-5.725-17.06-5.704zm5.584 5.055c.438.042 1.34.274 1.343.983l.004 1.339s.273.48.425.632c.154.153.023.854-.067 1.128-.09.276-.137 1.128-.137 1.128s-.44.233-.562.354c-.122.12-1.163.388-1.62.147-.459-.242-.726-.883-1.06-.913-.336-.03-.132-.029-.072-.282.06-.243-.286-1.126-.286-1.126l.914-.778s.55-1.187.488-1.552c-.062-.367.448-1.014.419-1.059-.007-.022.066-.023.211 0zm2.405 2.67c.125.054.365.353.495.421.174.088.121.391.214.634.092.244.356 1.126.356 1.126l-.563.214s-.896-.167-.988-.35c-.074-.146.188-.946.277-1.269.023-.077 0-.14 0-.14l.14-.565c.022-.045.028-.09.07-.07zM14.86 17.913c-.208.001-.613.146-.704.214-.122.093-.119 1.163.006 1.832.124.671-.378 1.069-.56 1.13-.184.061-.309 1.529-.276 1.833.031.305.893.53 1.13.56.236.03 1.227.018 1.196-.427-.033-.443.163-1.888.344-2.468.18-.58.129-1.398-.146-1.55-.275-.15-.85-1.054-.85-1.054-.023-.05-.071-.068-.14-.07zm1.352 24.943c.11 0 .268.022.423.069 0 0 .069 1.35.71 1.76.64.409 1.061 1.205 1.063 1.617.001.411.14.785.004 1.198-.136.411-.447.752-.843.707-.398-.044-.828-.9-.92-1.265-.093-.365-.437-1.153-.71-1.407-.276-.253-.332-.971-.287-1.338.039-.32-.207-1.356.56-1.341z"/></svg><svg viewBox="0 0 34 32" id="phone" xmlns="http://www.w3.org/2000/svg"><path d="M26.303 19.823c-.658-.682-1.451-1.047-2.292-1.047-.834 0-1.635.358-2.32 1.04l-2.142 2.128c-.177-.095-.353-.183-.523-.27-.244-.122-.474-.237-.67-.359-2.008-1.27-3.832-2.924-5.582-5.065-.847-1.067-1.417-1.965-1.83-2.877.555-.507 1.07-1.034 1.572-1.54.19-.19.38-.385.57-.574 1.424-1.418 1.424-3.255 0-4.674l-1.851-1.844c-.21-.209-.427-.425-.63-.641a31.98 31.98 0 00-1.276-1.256c-.657-.649-1.444-.993-2.271-.993-.828 0-1.628.344-2.306.993l-.014.013-2.305 2.317A4.933 4.933 0 00.96 8.314c-.162 1.972.42 3.81.868 5.012 1.099 2.951 2.74 5.686 5.188 8.617 2.97 3.533 6.544 6.322 10.626 8.287 1.56.737 3.642 1.608 5.968 1.756.142.007.291.014.427.014 1.566 0 2.882-.56 3.913-1.675.006-.014.02-.02.027-.034.352-.425.76-.81 1.186-1.222.292-.277.59-.568.882-.871.671-.696 1.024-1.507 1.024-2.337 0-.838-.36-1.642-1.044-2.317l-3.723-3.721zm2.427 7.111c-.006 0-.006.007 0 0-.264.284-.535.54-.827.825-.44.418-.888.857-1.309 1.35-.684.73-1.492 1.074-2.55 1.074-.101 0-.21 0-.311-.007-2.014-.128-3.886-.911-5.29-1.58-3.838-1.85-7.208-4.478-10.009-7.807-2.312-2.776-3.858-5.343-4.882-8.098-.631-1.682-.862-2.992-.76-4.228.068-.79.373-1.445.936-2.006L6.04 4.154c.333-.31.685-.48 1.031-.48.427 0 .773.257.99.473l.02.02c.414.385.808.784 1.221 1.21.21.215.427.432.644.654l1.852 1.844c.719.716.719 1.378 0 2.094-.197.196-.387.392-.584.58-.57.582-1.112 1.122-1.702 1.649-.013.013-.027.02-.034.034-.583.58-.474 1.148-.352 1.533l.02.06c.482 1.162 1.16 2.256 2.19 3.56l.007.006c1.872 2.297 3.845 4.086 6.022 5.458.278.175.563.317.834.452.244.122.475.236.671.358.028.013.055.034.082.047.23.115.447.169.671.169.563 0 .916-.351 1.031-.466l2.32-2.31c.23-.23.596-.506 1.023-.506.42 0 .766.263.977.493l.013.013 3.737 3.722c.698.688.698 1.398.006 2.113zM18.274 7.612a8.611 8.611 0 014.679 2.418 8.598 8.598 0 012.427 4.66.909.909 0 00.902.756.913.913 0 00.909-1.067 10.403 10.403 0 00-2.936-5.64 10.474 10.474 0 00-5.663-2.924.92.92 0 00-1.057.743.902.902 0 00.739 1.054zM33.003 14.116c-.604-3.526-2.272-6.734-4.835-9.287A17.23 17.23 0 0018.844.014a.912.912 0 00-1.052.743c-.08.5.251.966.753 1.053a15.429 15.429 0 018.334 4.303 15.28 15.28 0 014.32 8.3.909.909 0 00.902.756c.054 0 .102-.006.156-.013a.895.895 0 00.746-1.04z"/></svg></svg>