<svg width="138" height="62" viewBox="0 0 138 62" fill="none" xmlns="http://www.w3.org/2000/svg">
<path d="M40.404 26.156L40.566 27.74C42.51 27.326 47.1 26.876 49.026 26.678C47.388 27.65 45.678 29.954 45.678 32.744C45.678 36.776 49.458 38.54 52.788 38.666L53.31 37.19C50.394 37.082 47.1 35.948 47.1 32.438C47.1 30.314 48.666 27.56 51.24 26.732C52.158 26.48 53.724 26.444 54.768 26.462L54.75 25.022C53.544 25.058 51.87 25.166 49.89 25.328C46.578 25.616 43.176 25.94 42.024 26.066C41.664 26.102 41.088 26.138 40.404 26.156ZM52.158 28.658L51.258 29.054C51.798 29.81 52.302 30.728 52.716 31.592L53.652 31.178C53.256 30.368 52.572 29.252 52.158 28.658ZM54.12 27.902L53.238 28.316C53.796 29.072 54.336 29.972 54.768 30.836L55.686 30.386C55.272 29.594 54.57 28.496 54.12 27.902ZM68.916 24.644L67.314 23.996C67.098 24.536 66.864 24.968 66.666 25.4C65.676 27.128 61.734 34.508 60.42 38.144L61.968 38.684C62.22 37.802 62.976 35.66 63.534 34.598C64.218 33.176 65.586 31.7 67.026 31.7C67.836 31.7 68.304 32.186 68.34 32.96C68.394 33.95 68.376 35.336 68.43 36.398C68.484 37.46 69.114 38.666 71.04 38.666C73.65 38.666 75.162 36.65 76.116 33.752L74.91 32.78C74.46 34.706 73.272 37.19 71.256 37.19C70.482 37.19 69.87 36.794 69.816 35.894C69.744 35.012 69.78 33.644 69.744 32.582C69.69 31.16 68.826 30.386 67.62 30.386C66.756 30.386 65.82 30.728 64.956 31.502C65.874 29.756 67.53 26.768 68.34 25.526C68.538 25.184 68.754 24.86 68.916 24.644ZM82.362 25.67L82.452 26.984C85.026 27.236 87.546 27.236 89.364 27.056C90.804 26.93 92.334 26.624 93.504 26.282L93.306 24.968C92.01 25.4 90.534 25.706 89.058 25.832C87.222 26.012 84.864 25.976 82.362 25.67ZM82.002 29.36L82.092 30.71C85.188 30.944 88.518 30.89 90.732 30.602C92.244 30.422 93.612 30.152 94.602 29.882L94.368 28.55C93.414 28.838 91.956 29.198 90.246 29.378C88.14 29.63 85.08 29.684 82.002 29.36ZM88.158 25.436C88.41 26.336 88.68 27.29 89.13 28.532C89.652 29.99 90.408 31.718 91.398 33.266C90.84 33.194 89.67 33.068 88.698 32.978L88.59 34.076C89.832 34.202 91.506 34.382 92.514 34.634L93.27 33.536C93 33.302 92.784 33.05 92.586 32.762C91.65 31.376 90.858 29.648 90.372 28.244C89.922 26.966 89.364 25.148 89.184 23.636L87.654 23.834C87.852 24.356 88.014 24.914 88.158 25.436ZM84.63 33.248L83.226 32.942C82.812 33.734 82.506 34.49 82.506 35.516C82.542 37.838 84.522 38.882 88.032 38.882C89.58 38.882 90.984 38.774 92.244 38.558L92.316 37.136C91.002 37.388 89.688 37.514 88.014 37.514C85.188 37.514 83.874 36.758 83.874 35.282C83.874 34.472 84.198 33.86 84.63 33.248ZM100.614 26.156L100.776 27.74C102.72 27.326 107.31 26.876 109.236 26.678C107.598 27.65 105.888 29.954 105.888 32.744C105.888 36.776 109.668 38.54 112.998 38.666L113.52 37.19C110.604 37.082 107.31 35.948 107.31 32.438C107.31 30.314 108.876 27.56 111.45 26.732C112.368 26.48 113.934 26.444 114.978 26.462L114.96 25.022C113.754 25.058 112.08 25.166 110.1 25.328C106.788 25.616 103.386 25.94 102.234 26.066C101.874 26.102 101.298 26.138 100.614 26.156ZM112.368 28.658L111.468 29.054C112.008 29.81 112.512 30.728 112.926 31.592L113.862 31.178C113.466 30.368 112.782 29.252 112.368 28.658ZM114.33 27.902L113.448 28.316C114.006 29.072 114.546 29.972 114.978 30.836L115.896 30.386C115.482 29.594 114.78 28.496 114.33 27.902ZM130.566 23.744H128.91C128.946 23.906 129 24.41 129.036 24.896C129.09 25.886 129.108 29.468 129.108 30.26L130.476 30.962C130.458 29.522 130.422 26.048 130.476 24.878C130.476 24.662 130.53 23.96 130.566 23.744ZM120.99 26.264L121.026 27.65C123.744 27.452 127.596 27.326 130.692 27.326C133.338 27.326 134.958 27.362 135.966 27.416L135.984 26.084C135.138 26.066 132.906 26.066 130.71 26.066C127.938 26.066 123.438 26.228 120.99 26.264ZM130.44 31.484L129.45 30.98C129.738 32.906 129.018 33.842 127.902 33.842C126.912 33.842 126.066 33.194 126.066 32.06C126.066 30.89 126.948 30.152 127.902 30.152C128.874 30.152 129.666 30.836 129.666 32.456C129.666 35.426 127.758 37.028 124.482 37.802L125.688 38.972C129.864 37.73 131.052 35.03 131.052 32.582C131.052 30.512 129.99 28.964 127.902 28.964C126.192 28.964 124.716 30.296 124.716 32.078C124.716 34.04 126.174 35.102 127.686 35.102C129.324 35.102 130.44 33.896 130.44 31.484Z" fill="white"/>
<path d="M30.4435 0.102126C47.2437 0.045768 60.9329 13.6434 60.9892 30.4435C61.0456 47.2436 47.4479 60.9329 30.6478 60.9892C13.8476 61.0456 0.158485 47.4479 0.102127 30.6478C0.0457697 13.8477 13.6434 0.158483 30.4435 0.102126ZM30.4511 2.3572C26.133 2.37169 22.0645 3.38023 18.4141 5.12397C21.0562 5.64727 23.3045 6.79937 23.8412 6.67817C24.6636 6.49274 28.6516 7.17067 30.1167 7.71419C31.5818 8.25862 31.4464 8.95692 31.8125 9.04747C32.1794 9.1387 32.3753 9.46244 32.9436 10.1008C33.5127 10.7386 32.6665 11.5111 32.6665 11.5111C32.6665 11.5111 30.4969 12.0069 30.1257 10.3921C29.9064 9.43239 30.2211 11.2111 30.1309 11.9425C30.042 12.6745 28.6803 12.8615 27.9463 11.9498C27.6155 11.5393 27.6579 10.5322 27.4471 10.1897C27.1875 9.77132 26.6209 10.0943 26.3191 10.0525C26.1372 10.0306 26.5532 10.3368 26.3205 10.4753C25.8544 10.7527 24.8908 10.284 25.1256 11.3955C25.2198 11.8428 26.6361 11.9279 26.8209 12.5878C27.0071 13.2477 27.3177 13.6432 27.3177 13.6432L30.3482 13.7035L31.3301 12.2908C31.3301 12.2908 32.2929 12.7036 32.0391 13.5569C31.8649 14.1454 32.3252 14.8245 32.3252 14.8245C32.3252 14.8245 33.8764 15.0671 33.8779 15.524C33.8788 15.775 34.5111 15.8042 34.8659 15.9435C35.1573 16.0575 35.3557 16.5353 35.6433 16.5751C35.8152 16.5971 36.8863 16.7485 37.1239 16.7816C37.7673 16.8583 37.477 17.0065 37.4779 17.2737C37.4791 17.6392 36.2813 17.7005 36.2813 17.7005C36.2813 17.7005 35.5151 18.0006 35.7908 18.5478C36.0672 19.0963 35.5975 19.3237 36.1458 19.3218C36.384 19.321 36.9354 19.2442 37.4845 19.2469C38.1947 19.2445 38.8768 19.0195 38.8942 19.3126C38.9656 20.4413 38.9738 22.0608 38.9738 22.0608C38.9738 22.0608 38.0133 22.5392 37.4951 22.4181C36.7772 22.2536 35.7292 22.8188 35.237 21.5095C35.1988 21.4082 35.1728 21.1895 35.0946 21.0872C34.7537 20.6434 34.3836 19.7477 33.8207 19.4706C33.475 19.2981 32.9965 19.4119 32.8339 19.4034C32.4687 19.3821 31.8456 18.9134 31.8456 18.9134C31.8456 18.9134 30.2284 19.1376 29.8081 20.7525C29.6834 21.2288 29.8056 22.0104 29.5309 22.1629C29.3644 22.2559 28.6125 21.4613 28.6125 21.4613L27.767 21.5346L28.2566 20.4054L29.801 18.6384L29.5187 18.5028C29.5187 18.5028 28.3432 18.5858 28.2514 18.8594C28.1616 19.1344 26.7473 19.8338 26.9888 20.6255C27.3897 21.935 26.4305 22.2482 26.4305 22.2482C26.4305 22.2482 25.5982 22.4471 25.2308 21.7589C24.9114 21.1588 24.8747 20.6326 24.8747 20.6326L23.8169 20.4203C23.8169 20.4203 23.9105 18.2255 22.7522 18.1687C21.594 18.114 21.4838 18.173 21.4838 18.173C21.4838 18.173 18.943 19.0217 18.6699 19.6624C18.3989 20.3028 18.2747 20.9115 19.0972 20.9999C19.9204 21.0896 21.1406 20.927 21.1406 20.927C21.1406 20.927 24.3733 20.4256 24.1018 21.3399C23.8311 22.2552 23.5442 23.174 23.5442 23.174C23.5442 23.174 22.8411 23.1026 22.2055 23.2446C21.5264 23.4024 20.6554 23.3202 20.6554 23.3202L20.5196 24.8711L20.9429 25.0106C21.404 25.1376 22.7624 25.2211 23.1287 25.3556C23.495 25.4897 27.4752 24.7813 27.567 24.9179C27.6588 25.0529 28.9522 25.5181 29.6825 25.3336C30.4136 25.1485 30.5923 23.4278 30.5923 23.4278C30.5923 23.4278 30.721 22.6071 31.2239 22.6505C31.7275 22.6939 35.1715 22.9897 35.1715 22.9897C35.1715 22.9897 36.3007 23.4882 36.3016 23.7611C36.3016 23.7611 36.6196 23.5309 37.0768 23.7585C37.5347 23.9865 37.7694 24.5064 37.9539 24.8711C38.1378 25.2369 38 25.5 38.8942 26C39.2614 26.6379 39.2209 26.3576 39.5 27.5C39.7784 28.6415 40.5642 31.0511 41 31.5C40.9572 32.323 41.3207 33.5494 40.5 34C39.6786 34.452 39.0817 36.5873 38.6716 37.0018C38.2622 37.4139 36.0593 37.7568 35.7842 37.5753C35.5097 37.3935 34.5233 37.0157 34.0205 37.0174C33.5171 37.0191 32.4375 37.1016 32.119 37.3762C31.8004 37.6519 31.4105 38.2429 31.1376 38.9299C30.8668 39.6163 30.5968 40.7745 30.37 41.1875C30.1424 41.5996 29.2779 42.3866 29.6014 43.1633C29.9235 43.9398 30.4731 44.7127 30.3848 45.6272C30.2966 46.5408 29.7531 47.755 29.5477 48.167C29.3409 48.5781 28.0272 49.874 28.0749 50.2861C28.1212 50.6966 27.7323 50.5965 27.2309 50.7822C26.7288 50.9666 24.5892 50.3826 24.2685 50.017C23.9471 49.6525 23.4473 48.5003 22.852 47.9076C22.256 47.3147 21.0206 46.3446 20.3779 45.6608C19.7367 44.9769 19.0802 44.3487 19.0317 43.4807C18.9845 42.6113 19.4801 40.6984 19.0213 40.3799C18.5624 40.0612 17.9267 39.5686 17.4662 38.9757C17.0071 38.3835 16.0355 38.4335 15.3438 36.5163C14.6513 34.5989 14.4232 34.0037 14.5598 33.9115C14.695 33.8186 15.7865 34.2678 15.9714 34.541C16.155 34.815 17.2235 34.8796 17.4532 35.0998C17.6821 35.32 18.7216 35.0955 18.7216 35.0955C18.7216 35.0955 18.2761 33.3652 18.5024 32.7707C18.7294 32.1764 19.8886 29.8537 20.2517 29.0298C20.5496 28.3543 20.5995 27.573 20.4565 27.0559C20.3983 27.1396 20.3615 27.1865 20.3162 27.2678C20.1553 27.5604 19.2814 28.6011 18.9149 29.6686C18.1317 31.9567 17.2368 33.6206 17.2368 33.6206C17.2368 33.6206 16.046 33.6698 14.0606 32.1514C12.7094 31.1199 11.2685 31.0709 11.0249 30.5407C10.5644 29.536 12.428 28.6332 12.428 28.6332L14.1193 28.6276L15.3804 26.4387L15.0276 26.2989C15.0276 26.2989 13.6283 27.9245 12.9894 27.9266C12.3504 27.9288 10.6479 27.7878 10.1017 28.4296C9.55548 29.0712 7.84506 30.1585 7.5742 31.257C7.30263 32.3543 7.44726 33.8865 6.95059 34.4303C6.25146 35.1953 5.61401 35.1395 5.61401 35.1395L4.76173 33.1692L2.78098 30.9207L2.36185 30.7107C2.4525 46.2591 15.0827 58.7863 30.6402 58.7341C38.0225 58.7094 44.7059 55.8304 49.7128 51.1781L48.863 49.9345L47.8631 45.9914L50.2542 44.5035L52.9995 43.5781L54.8168 39.1323C54.8168 39.1323 56.5223 37.7442 57.9372 37.1002C58.4463 34.9632 58.7418 32.7461 58.7341 30.4511C58.7286 28.7881 58.5494 27.1683 58.2686 25.5857C56.5311 24.2635 54.1996 23.2077 54.1996 23.2077C54.1996 23.2077 52.9139 23.0654 55.103 19.3992C55.4191 18.8698 55.6032 18.3826 55.7235 17.9172C54.7925 16.0626 53.6852 14.3142 52.385 12.7223C52.4994 13.3895 52.9473 16.168 52.134 16.6607C51.2231 17.2122 50.3409 15.5236 50.1551 14.9761C49.9706 14.4282 48.0591 12.3447 47.3237 11.2505C46.7997 10.4701 46.9789 8.95115 47.5112 8.06106C42.7648 4.47538 36.866 2.33568 30.4511 2.3572ZM36.0354 7.41245C36.4731 7.45383 37.3752 7.68646 37.3776 8.39456L37.3821 9.73351C37.3821 9.73351 37.6547 10.2148 37.8071 10.3663C37.9609 10.5192 37.8301 11.2198 37.7404 11.4941C37.65 11.7698 37.6032 12.6221 37.6032 12.6221C37.6032 12.6221 37.1622 12.8553 37.0406 12.9764C36.919 13.0963 35.8782 13.3643 35.4203 13.1227C34.9623 12.8814 34.6954 12.2397 34.3601 12.2102C34.0249 12.1797 34.2289 12.1813 34.2887 11.9285C34.3486 11.6852 34.003 10.8019 34.003 10.8019L34.9166 10.0237C34.9166 10.0237 35.4672 8.83676 35.4047 8.47165C35.3434 8.10517 35.8526 7.45794 35.8239 7.41316C35.8171 7.39063 35.8896 7.39039 36.0354 7.41245ZM38.4404 10.0823C38.5646 10.136 38.8049 10.4349 38.9351 10.5035C39.1088 10.5909 39.056 10.8942 39.1486 11.137C39.2408 11.3807 39.5048 12.2634 39.5048 12.2634L38.9417 12.4767C38.9417 12.4767 38.0458 12.3104 37.9539 12.1276C37.8799 11.9813 38.142 11.181 38.2315 10.8582C38.2538 10.7815 38.2311 10.7173 38.2311 10.7173L38.3701 10.153C38.393 10.1078 38.399 10.0622 38.4404 10.0823ZM14.8585 17.9133C14.651 17.914 14.2458 18.0592 14.1545 18.1271C14.0328 18.22 14.0364 19.2902 14.1607 19.9594C14.2849 20.6301 13.783 21.0278 13.6007 21.0888C13.4169 21.1503 13.2925 22.6177 13.3249 22.922C13.356 23.2266 14.2175 23.4528 14.4544 23.482C14.6905 23.5128 15.6824 23.5004 15.651 23.0551C15.6181 22.6123 15.8144 21.1672 15.995 20.5875C16.1758 20.0077 16.1239 19.1893 15.8489 19.0376C15.5738 18.8874 14.9997 17.9833 14.9997 17.9833C14.9765 17.9338 14.9278 17.9154 14.8585 17.9133ZM16.2107 42.8559C16.3203 42.8555 16.4793 42.8781 16.6338 42.9249C16.6338 42.9249 16.7025 44.2752 17.3444 44.6843C17.9847 45.0938 18.4055 45.8903 18.4069 46.3016C18.4083 46.7134 18.5464 47.0874 18.4109 47.4996C18.2754 47.9114 17.9642 48.2521 17.5676 48.2072C17.1702 48.1634 16.7397 47.3073 16.6472 46.9418C16.5547 46.5765 16.2111 45.7893 15.9378 45.5347C15.6624 45.282 15.6063 44.5636 15.6514 44.1967C15.6896 43.877 15.4444 42.8411 16.2107 42.8559Z" fill="white"/>
</svg>
