<svg width="34" height="32" viewBox="0 0 34 32" fill="none" xmlns="http://www.w3.org/2000/svg">
<path d="M26.3028 19.8228C25.645 19.1406 24.8516 18.7759 24.0107 18.7759C23.1766 18.7759 22.3764 19.1339 21.6915 19.816L19.5486 21.9435C19.3723 21.8489 19.196 21.7611 19.0265 21.6733C18.7824 21.5517 18.5518 21.4369 18.3551 21.3153C16.3479 20.0456 14.5237 18.3909 12.7742 16.25C11.9265 15.1829 11.3569 14.2846 10.9432 13.3729C11.4993 12.8663 12.0147 12.3395 12.5165 11.833C12.7064 11.6439 12.8962 11.448 13.0861 11.2589C14.5102 9.8406 14.5102 8.00356 13.0861 6.58526L11.2348 4.74147C11.0246 4.5321 10.8076 4.31598 10.6042 4.09985C10.1973 3.68112 9.77009 3.24887 9.32931 2.84364C8.67153 2.19528 7.8849 1.85083 7.05759 1.85083C6.23028 1.85083 5.43009 2.19528 4.75197 2.84364C4.74519 2.8504 4.74519 2.8504 4.73841 2.85715L2.43278 5.17371C1.56478 6.0382 1.06975 7.0918 0.961253 8.31424C0.798504 10.2864 1.38169 12.1234 1.82925 13.3256C2.92781 16.277 4.56888 19.0123 7.0169 21.9435C9.98709 25.4757 13.5608 28.265 17.6431 30.2304C19.2028 30.9666 21.2846 31.8378 23.6106 31.9864C23.753 31.9931 23.9022 31.9999 24.0378 31.9999C25.6043 31.9999 26.9199 31.4393 27.9506 30.325C27.9574 30.3114 27.9709 30.3047 27.9777 30.2912C28.3304 29.8657 28.7372 29.4807 29.1644 29.0687C29.456 28.7918 29.7544 28.5014 30.046 28.1975C30.7174 27.5019 31.07 26.6914 31.07 25.8607C31.07 25.0232 30.7106 24.2195 30.0257 23.5441L26.3028 19.8228ZM28.7304 26.9345C28.7237 26.9345 28.7237 26.9413 28.7304 26.9345C28.466 27.2182 28.1947 27.4748 27.9031 27.7585C27.4624 28.1772 27.0148 28.6162 26.5944 29.1093C25.9095 29.8387 25.1025 30.1831 24.0446 30.1831C23.9429 30.1831 23.8344 30.1831 23.7327 30.1764C21.7186 30.048 19.847 29.2646 18.4433 28.596C14.6051 26.7454 11.2348 24.1182 8.43419 20.7886C6.12178 18.0127 4.57566 15.4463 3.55169 12.6907C2.92103 11.009 2.69047 9.69877 2.79219 8.46282C2.86 7.67263 3.16516 7.01751 3.728 6.45694L6.04041 4.15388C6.37269 3.84321 6.72531 3.67436 7.07116 3.67436C7.49837 3.67436 7.84422 3.93101 8.06122 4.14713C8.068 4.15388 8.07478 4.16064 8.08156 4.16739C8.49522 4.55236 8.88853 4.95084 9.30218 5.37633C9.5124 5.59245 9.7294 5.80857 9.9464 6.03145L11.7977 7.87524C12.5165 8.59115 12.5165 9.25302 11.7977 9.96893C11.601 10.1648 11.4112 10.3606 11.2145 10.5498C10.6449 11.1306 10.1024 11.6709 9.5124 12.1977C9.49884 12.2112 9.48528 12.2179 9.4785 12.2315C8.89531 12.8123 9.00381 13.3796 9.12587 13.7646C9.13265 13.7848 9.13943 13.8051 9.14622 13.8254C9.62768 14.987 10.3058 16.0811 11.3366 17.3846L11.3433 17.3914C13.215 19.6877 15.1883 21.4774 17.3651 22.8485C17.6431 23.0241 17.9279 23.1659 18.1992 23.301C18.4433 23.4225 18.6739 23.5374 18.8705 23.6589C18.8976 23.6724 18.9248 23.6927 18.9519 23.7062C19.1825 23.821 19.3995 23.875 19.6232 23.875C20.1861 23.875 20.5387 23.5238 20.654 23.409L22.9732 21.0992C23.2037 20.8696 23.5699 20.5927 23.9971 20.5927C24.4176 20.5927 24.7634 20.8561 24.9736 21.0857C24.9804 21.0925 24.9804 21.0925 24.9872 21.0992L28.7237 24.8206C29.4221 25.5095 29.4221 26.2186 28.7304 26.9345Z" fill="#FCFCFC"/>
<path d="M18.2736 7.61195C20.0503 7.90912 21.6642 8.74659 22.9527 10.0298C24.2411 11.313 25.0752 12.9205 25.3804 14.69C25.455 15.1357 25.8415 15.4464 26.2823 15.4464C26.3365 15.4464 26.384 15.4396 26.4382 15.4329C26.94 15.3518 27.2723 14.8791 27.191 14.3793C26.8248 12.2383 25.8076 10.2865 24.2547 8.73984C22.7018 7.19321 20.742 6.18014 18.5923 5.81543C18.0905 5.73438 17.6226 6.06532 17.5345 6.55835C17.4463 7.05138 17.7718 7.5309 18.2736 7.61195Z" fill="#FCFCFC"/>
<path d="M33.0028 14.1159C32.3993 10.5904 30.7311 7.38232 28.1678 4.82938C25.6045 2.27643 22.3834 0.614991 18.8436 0.0139004C18.3485 -0.0738993 17.8806 0.263792 17.7925 0.756821C17.7111 1.2566 18.0434 1.72262 18.5452 1.81042C21.7052 2.34397 24.5873 3.83657 26.8793 6.1126C29.1714 8.3954 30.6633 11.2658 31.199 14.4131C31.2736 14.8588 31.6601 15.1695 32.1009 15.1695C32.1551 15.1695 32.2026 15.1627 32.2569 15.156C32.7519 15.0817 33.0909 14.6089 33.0028 14.1159Z" fill="#FCFCFC"/>
</svg>
